HIERARCHY
ROOT Hips
{
  OFFSET 0 0 0
  CHANNELS 6 Xposition Yposition Zposition Zrotation Yrotation Xrotation
  JOINT LeftThigh
  {
    OFFSET 8.409438 0 -5.917753
    CHANNELS 3 Zrotation Yrotation Xrotation
    JOINT LeftLeg
    {
      OFFSET 0 0 -42.358652
      CHANNELS 3 Zrotation Yrotation Xrotation
      JOINT LeftFoot
      {
        OFFSET 0 0 -39.357303
        CHANNELS 3 Zrotation Yrotation Xrotation
      }
    }
  }
  JOINT RightThigh
  {
    OFFSET -8.409438 0 -5.917753
    CHANNELS 3 Zrotation Yrotation Xrotation
    JOINT RightLeg
    {
      OFFSET 0 0 -42.358652
      CHANNELS 3 Zrotation Yrotation Xrotation
      JOINT RightFoot
      {
        OFFSET 0 0 -39.357303
        CHANNELS 3 Zrotation Yrotation Xrotation
      }
    }
  }
  JOINT SpineLow
  {
    OFFSET 0 0 4.719101
    CHANNELS 3 Zrotation Yrotation Xrotation
    JOINT SpineMid
    {
      OFFSET 0 0 12.899191
      CHANNELS 3 Zrotation Yrotation Xrotation
      JOINT Chest
      {
        OFFSET 0 0 12.899191
        CHANNELS 3 Zrotation Yrotation Xrotation
        JOINT LeftShoulder
        {
          OFFSET 7.550562 1.41573 9.438202
          CHANNELS 3 Zrotation Yrotation Xrotation
          JOINT LeftArm
          {
            OFFSET 9.155056 0 4.247191
            CHANNELS 3 Zrotation Yrotation Xrotation
            JOINT LeftForearm
            {
              OFFSET 0 0 25.771955
              CHANNELS 3 Zrotation Yrotation Xrotation
              JOINT LeftHand
              {
                OFFSET 0 0 25.197169
                CHANNELS 3 Zrotation Yrotation Xrotation
              }
            }
          }
        }
        JOINT RightShoulder
        {
          OFFSET -7.550562 1.41573 9.438202
          CHANNELS 3 Zrotation Yrotation Xrotation
          JOINT RightArm
          {
            OFFSET -9.155056 0 4.247191
            CHANNELS 3 Zrotation Yrotation Xrotation
            JOINT RightForearm
            {
              OFFSET 0 0 -25.771955
              CHANNELS 3 Zrotation Yrotation Xrotation
              JOINT RightHand
              {
                OFFSET 0 0 -25.197169
                CHANNELS 3 Zrotation Yrotation Xrotation
              }
            }
          }
        }
        JOINT Neck
        {
          OFFSET 0 0 15.101124
          CHANNELS 3 Zrotation Yrotation Xrotation
          JOINT Head
          {
            OFFSET 0 0 11.325843
            CHANNELS 3 Zrotation Yrotation Xrotation
            End Site
            {
              OFFSET 0 0 14.157303
            }
          }
        }
      }
    }
  }
}
MOTION
Frames: 7
Frame Time: 0.0
0.0  89.887642  0.0  -0.198188  -8.871322  -93.73971  14.297806  -11.979259  2.582222  3.262461  -0.151338  11.206135  1.620578  0.040902  0.05695  -14.119771  10.822524  -3.260062  -8.156299  4.926822  9.958421  1.368833  0.610822  0.765323  -0.962313  -0.61523  -0.016057  -2.630501  -1.682002  -0.019405  -2.630501  -1.682002  -0.019405  -8.637945  16.200208  9.4649  152.869415  35.364502  -155.107088  8.311149  -1.042079  69.656945  54.587335  19.347141  -50.944621  -4.102934  -10.973493  19.239835  82.357647  28.429115  44.288321  0.621186  12.323675  -45.383258  93.560983  -13.818818  -5.555628  -11.816952  -7.198858  -28.331844  -9.210095  -4.8659  -21.369749  
0.0  89.887642  0.0  -0.147404  -8.388277  -93.631372  13.965306  -11.964503  2.445462  3.237  -0.093379  11.170594  1.631435  0.028685  0.075222  -14.286764  10.908901  -3.383249  -8.382014  4.914635  10.160962  1.390738  0.663309  0.725013  -0.985927  -0.609764  -0.036303  -2.694544  -1.667891  -0.074368  -2.694544  -1.66789  -0.074368  -8.585313  16.219271  9.458243  152.43806  35.380818  -155.027782  8.705408  -1.200737  68.960808  54.15095  19.370531  -50.901831  -4.114385  -10.801704  19.321343  81.777897  28.413859  43.933692  0.562556  12.901739  -45.551964  93.615696  -13.994794  -5.30992  -12.050411  -7.10542  -28.31568  -9.38109  -4.785117  -21.359642  
0.0  89.887642  0.0  -0.081521  -7.780748  -93.44463  13.267887  -11.899525  2.097636  3.313587  -0.059674  11.226357  1.735936  0.065786  0.180886  -14.926156  11.053674  -3.797204  -8.774246  4.911393  10.479869  1.918528  0.789223  0.745257  -1.026816  -0.604195  -0.067284  -2.805555  -1.654019  -0.158254  -2.805555  -1.65402  -0.158254  -8.595343  16.283321  9.40336  152.154225  35.448605  -155.043562  9.067221  -1.219542  68.460442  53.799655  19.418822  -50.906839  -4.334914  -10.615533  19.245559  81.401237  28.205725  43.691765  0.400918  13.556002  -45.851482  93.683262  -14.190383  -5.012322  -12.298237  -7.004704  -28.321699  -9.562864  -4.697775  -21.366188  
0.0  89.887642  0.0  0.03379  -7.157328  -93.251204  12.697318  -11.785706  1.78943  3.434178  0.041703  11.365179  1.757647  0.047617  0.212575  -15.291405  11.234859  -4.154307  -9.141953  4.910422  10.943562  1.970727  0.882697  0.675272  -1.061214  -0.58924  -0.097574  -2.898871  -1.61455  -0.240837  -2.898871  -1.61455  -0.240837  -8.537609  16.332665  9.397296  151.672655  35.593028  -155.041638  9.270246  -1.118358  67.959119  53.485061  19.447856  -50.983752  -4.441383  -10.398359  19.219675  80.611406  28.151244  43.188317  0.375453  14.358239  -46.205748  93.762644  -14.401179  -4.632451  -12.560871  -6.928886  -28.341296  -9.757036  -4.62821  -21.383345  
0.0  89.887642  0.0  0.155712  -6.26438  -92.953333  11.734728  -11.649295  1.260257  3.613794  0.170924  11.61516  1.78872  0.038563  0.268835  -16.058628  11.424102  -4.738733  -9.534657  4.920532  11.528064  2.104741  1.008384  0.608609  -1.137469  -0.573168  -0.146792  -3.106204  -1.573196  -0.374248  -3.106204  -1.573196  -0.374248  -8.723315  16.412769  9.338735  151.385654  35.732284  -155.150449  9.360698  -0.962481  67.607392  53.199256  19.44938  -51.087283  -4.750746  -10.161372  19.068779  79.983415  27.911773  42.736648  0.334701  15.317415  -46.6312  93.856618  -14.634146  -4.133224  -12.823737  -6.851959  -28.36823  -9.951437  -4.557631  -21.405929  
0.0  89.887642  0.0  0.331827  -5.357872  -92.674006  10.764834  -11.482399  0.686819  3.848487  0.384177  12.04235  1.762776  0.029247  0.300786  -16.700452  11.70932  -5.362871  -9.792437  4.89455  12.30896  2.138606  1.136297  0.538022  -1.205947  -0.546101  -0.189438  -3.292556  -1.501721  -0.49051  -3.292556  -1.501721  -0.49051  -8.785952  16.531124  9.391994  150.918788  35.930605  -155.234964  9.395698  -0.787946  67.31783  52.993433  19.450612  -51.161842  -4.959201  -9.888659  18.923041  79.053966  27.713866  42.083218  0.3418  16.447467  -47.119011  93.935041  -14.936892  -3.518067  -13.109861  -6.808661  -28.420263  -10.16511  -4.510737  -21.448044  
0.0  89.887642  0.0  0.432825  -4.047256  -92.217925  9.277947  -11.386427  -0.239548  4.087576  0.681385  12.707352  1.79562  -0.008092  0.323695  -17.764451  11.920429  -6.224279  -10.10027  4.878528  13.259263  2.233514  1.308241  0.452046  -1.336559  -0.531586  -0.25413  -3.64827  -1.466553  -0.665121  -3.64827  -1.466553  -0.665121  -9.224113  16.616896  9.298773  150.780925  36.019751  -155.390474  9.372728  -0.601456  67.198292  52.868227  19.472514  -51.138419  -5.444058  -9.614491  18.518428  78.377389  27.261195  41.560352  0.380383  17.731826  -47.688717  93.974201  -15.301289  -2.815289  -13.40514  -6.76873  -28.50882  -10.386285  -4.465124  -21.517672  
